<?xml version="1.0" standalone="no"?><!DOCTYPE svg PUBLIC "-//W3C//DTD SVG 1.1//EN" "http://www.w3.org/Graphics/SVG/1.1/DTD/svg11.dtd"><svg t="1551339486036" class="icon" style="" viewBox="0 0 1024 1024" version="1.1" xmlns="http://www.w3.org/2000/svg" p-id="5227" xmlns:xlink="http://www.w3.org/1999/xlink" width="200" height="200"><defs><style type="text/css"></style></defs><path d="M512.105912 80.83812c-237.365082 0-429.779394 192.56883-429.779394 430.134481 0 237.564627 192.414311 430.132434 429.779394 430.132434 237.387595 0 429.801906-192.567807 429.801906-430.132434C941.907818 273.40695 749.494531 80.83812 512.105912 80.83812zM605.570607 696.710862c10.212596 10.166547 11.227716 25.591865 2.321882 34.477232-8.92937 8.885368-24.465205 7.844665-34.675754-2.297322l-199.88547-197.651592c-5.79089-5.7694-8.53028-13.19451-8.266267-20.180622-0.309038-7.048533 2.432399-14.541181 8.245801-20.35356l199.905936-197.651592c10.210549-10.166547 25.724895-11.183713 34.675754-2.298346 8.905834 8.884344 7.891737 24.311709-2.321882 34.477232L417.64554 510.972601 605.570607 696.710862z" p-id="5228" fill="#ffffff"></path></svg>