<?xml version="1.0" standalone="no"?><!DOCTYPE svg PUBLIC "-//W3C//DTD SVG 1.1//EN" "http://www.w3.org/Graphics/SVG/1.1/DTD/svg11.dtd"><svg t="1551287458007" class="icon" style="" viewBox="0 0 1028 1024" version="1.1" xmlns="http://www.w3.org/2000/svg" p-id="3374" xmlns:xlink="http://www.w3.org/1999/xlink" width="200.78125" height="200"><defs><style type="text/css"></style></defs><path d="M726.109091 32.581818c-83.781818 0-158.254545 32.581818-214.109091 93.090909-55.854545-60.509091-130.327273-93.090909-214.109091-93.090909C134.981818 32.581818 0 176.872727 0 353.745455c0 93.090909 37.236364 181.527273 107.054545 246.690909l353.745455 367.709091c13.963636 13.963636 32.581818 23.272727 51.2 23.272727 18.618182 0 37.236364-9.309091 51.2-23.272727l358.4-363.054546c65.163636-65.163636 107.054545-158.254545 107.054545-251.345454-4.654545-176.872727-139.636364-321.163636-302.545454-321.163637z m144.290909 516.654546L512 912.290909l-358.4-367.709091c-51.2-51.2-83.781818-116.363636-83.781818-190.836363 0-134.981818 102.4-242.036364 228.072727-242.036364 97.745455 0 176.872727 65.163636 214.109091 153.6 32.581818-88.436364 116.363636-153.6 214.109091-153.6 125.672727 0 228.072727 107.054545 228.072727 242.036364 0 74.472727-32.581818 144.290909-83.781818 195.490909z" fill="#ffffff" p-id="3375"></path></svg>