<?xml version="1.0" standalone="no"?><!DOCTYPE svg PUBLIC "-//W3C//DTD SVG 1.1//EN" "http://www.w3.org/Graphics/SVG/1.1/DTD/svg11.dtd"><svg t="1551287537236" class="icon" style="" viewBox="0 0 1024 1024" version="1.1" xmlns="http://www.w3.org/2000/svg" p-id="4210" xmlns:xlink="http://www.w3.org/1999/xlink" width="200" height="200"><defs><style type="text/css"></style></defs><path d="M491.552807 62.400189 144.175145 62.400189c-45.143153 0-81.785701 36.621059-81.785701 81.785701l0 735.630267c0 45.143153 36.622082 81.784678 81.785701 81.784678l735.629243 0c45.144176 0 81.785701-36.621059 81.785701-81.784678L961.59009 533.51399c0.020466-0.35918 0.020466-0.718361 0.020466-1.077541 0-16.923438-13.730723-30.65416-30.674627-30.65416-16.923438 0-30.65416 13.730723-30.65416 30.65416l0 326.923818c0 22.610974-18.441001 40.932248-40.933271 40.932248L164.631036 900.292514c-22.611997 0-40.932248-18.441001-40.932248-40.932248L123.698788 164.641781c0-22.611997 18.441001-40.933271 40.932248-40.933271l326.922794 0 0 0c16.943904 0 30.674627-13.730723 30.674627-30.65416S508.496711 62.400189 491.552807 62.400189L491.552807 62.400189z" p-id="4211" fill="#ffffff"></path><path d="M961.609533 93.054349c0-0.079818-0.020466-0.140193-0.020466-0.220011l0-2.972705c0-6.90527-2.953262-13.132088-7.644097-17.962094-0.319272-0.379647-0.659009-0.738827-0.997724-1.098008-0.220011-0.198521-0.418532-0.399089-0.638543-0.578168-4.849448-4.809539-11.156084-7.823176-18.161638-7.823176L743.815181 62.400189c-15.167444 0-27.461445 13.730723-27.461445 30.65416s12.294001 30.65416 27.461445 30.65416l112.738667 0L555.616892 424.64649c-11.955286 11.955286-11.955286 31.372521 0 43.347251 11.973706 11.973706 31.392988 11.973706 43.347251 0l301.316603-301.316603L900.280746 280.174074c0 15.167444 13.730723 27.461445 30.65416 27.461445s30.65416-12.294001 30.65416-27.461445L961.589067 93.27436C961.589067 93.194542 961.609533 93.134167 961.609533 93.054349z" p-id="4212" fill="#ffffff"></path></svg>