<?xml version="1.0" standalone="no"?><!DOCTYPE svg PUBLIC "-//W3C//DTD SVG 1.1//EN" "http://www.w3.org/Graphics/SVG/1.1/DTD/svg11.dtd"><svg t="1551378905236" class="icon" style="" viewBox="0 0 1024 1024" version="1.1" xmlns="http://www.w3.org/2000/svg" p-id="7464" xmlns:xlink="http://www.w3.org/1999/xlink" width="200" height="200"><defs><style type="text/css"></style></defs><path d="M588.780762 3.100237c-8.531196-5.687464-19.906124-2.843732-28.437319 2.843731l-341.247832 238.873483H51.315427c-14.21866 0-25.593587 11.374928-25.593587 22.749855v489.121892c0 14.21866 11.374928 22.749855 25.593587 22.749856h167.780184l344.091564 238.873482c5.687464 2.843732 8.531196 5.687464 14.218659 5.687464 2.843732 0 8.531196 0 11.374928-2.843732 8.531196-2.843732 14.21866-11.374928 14.21866-19.906123V23.00636c0-8.531196-5.687464-17.062392-14.21866-19.906123zM895.903811 227.755059c-14.21866-14.21866-34.124783-14.21866-48.343443 0s-14.21866 36.968515 0 54.030907c48.343443 54.030907 79.624494 130.811669 79.624494 218.967359s-31.281051 162.09272-79.624494 218.967358c-14.21866 14.21866-14.21866 36.968515 0 54.030907 14.21866 14.21866 34.124783 14.21866 48.343443 0 62.562102-68.249566 102.37435-164.936452 102.374349-272.998265s-39.812247-204.748699-102.374349-272.998266z m-108.061814 108.061814c-14.21866-14.21866-34.124783-14.21866-48.343442 0s-14.21866 36.968515 0 54.030906c25.593587 25.593587 42.655979 65.405834 42.655979 108.061814s-14.21866 79.624494-42.655979 108.061813c-14.21866 14.21866-14.21866 36.968515 0 54.030907 14.21866 14.21866 34.124783 14.21866 48.343442 0 39.812247-42.655979 62.562102-99.530618 62.562103-162.09272s-22.749855-125.124205-62.562103-162.09272z" fill="#ffffff" p-id="7465"></path></svg>