<?xml version="1.0" standalone="no"?><!DOCTYPE svg PUBLIC "-//W3C//DTD SVG 1.1//EN" "http://www.w3.org/Graphics/SVG/1.1/DTD/svg11.dtd"><svg t="1551378993101" class="icon" style="" viewBox="0 0 1024 1024" version="1.1" xmlns="http://www.w3.org/2000/svg" p-id="7612" xmlns:xlink="http://www.w3.org/1999/xlink" width="200" height="200"><defs><style type="text/css"></style></defs><path d="M890.216347 514.971984l88.15569 88.15569c14.21866 14.21866 14.21866 39.812247 0 54.030907s-39.812247 14.21866-54.030907 0L836.18544 569.002891l-88.15569 88.15569c-14.21866 14.21866-39.812247 14.21866-54.030906 0s-14.21866-39.812247 0-54.030907l88.15569-88.15569-90.999422-88.15569c-14.21866-14.21866-14.21866-39.812247 0-54.030906s39.812247-14.21866 54.030906 0l88.15569 88.15569 88.15569-88.15569c14.21866-14.21866 39.812247-14.21866 54.030907 0s14.21866 39.812247 0 54.030906l-85.311958 88.15569z m-312.810513-511.871747c-8.531196-5.687464-19.906124-2.843732-28.437319 2.843731l-341.247832 238.873483H39.940499c-14.21866 0-25.593587 11.374928-25.593587 22.749855v489.121892c0 14.21866 11.374928 22.749855 25.593587 22.749856h167.780184l344.091564 238.873482c5.687464 2.843732 8.531196 5.687464 14.21866 5.687464 2.843732 0 8.531196 0 11.374927-2.843732 8.531196-2.843732 14.21866-11.374928 14.21866-19.906123V23.00636c0-8.531196-5.687464-17.062392-14.21866-19.906123z" fill="#ffffff" p-id="7613"></path></svg>