<?xml version="1.0" standalone="no"?><!DOCTYPE svg PUBLIC "-//W3C//DTD SVG 1.1//EN" "http://www.w3.org/Graphics/SVG/1.1/DTD/svg11.dtd"><svg t="1542617697512" class="icon" style="" viewBox="0 0 1024 1024" version="1.1" xmlns="http://www.w3.org/2000/svg" p-id="8818" xmlns:xlink="http://www.w3.org/1999/xlink" width="32" height="32"><defs><style type="text/css"></style></defs><path d="M535.466667 149.333333H533.333333c-8.533333 0-17.066667 2.133333-25.6 8.533334-125.866667 108.8-192 166.4-198.4 172.8H204.8c-12.8 0-23.466667 4.266667-32 12.8-8.533333 8.533333-12.8 19.2-12.8 32v277.333333c0 12.8 4.266667 23.466667 12.8 32 8.533333 8.533333 19.2 12.8 32 12.8h102.4c2.133333 2.133333 21.333333 19.2 53.333333 46.933333 32 27.733333 66.133333 55.466667 96 81.066667 32 25.6 46.933333 40.533333 49.066667 40.533333 8.533333 6.4 17.066667 8.533333 25.6 8.533334h2.133333c17.066667-2.133333 27.733333-12.8 32-32v-661.333334c-2.133333-19.2-12.8-29.866667-29.866666-32z m-10.666667 676.266667c-6.4-4.266667-198.4-170.666667-198.4-170.666667H202.666667V371.2h123.733333s46.933333-42.666667 198.4-174.933333v629.333333z m262.4-535.466667c-8.533333-10.666667-21.333333-10.666667-32-2.133333-8.533333 8.533333-8.533333 19.2-2.133333 27.733333 42.666667 53.333333 68.266667 121.6 68.266666 196.266667 0 74.666667-25.6 142.933333-68.266666 196.266667-6.4 8.533333-6.4 19.2 2.133333 27.733333s23.466667 8.533333 32-2.133333c49.066667-61.866667 76.8-138.666667 76.8-224s-29.866667-157.866667-76.8-219.733334z m-123.733333 89.6c-8.533333 8.533333-8.533333 19.2-4.266667 25.6 21.333333 29.866667 32 68.266667 32 106.666667 0 40.533333-12.8 76.8-32 106.666667-6.4 8.533333-4.266667 19.2 2.133333 25.6 8.533333 8.533333 23.466667 8.533333 32-2.133334 25.6-38.4 40.533333-83.2 40.533334-130.133333 0-49.066667-14.933333-93.866667-40.533334-130.133333-4.266667-10.666667-19.2-12.8-29.866666-2.133334z" p-id="8819" fill="#ffffff"></path></svg>