<?xml version="1.0" standalone="no"?><!DOCTYPE svg PUBLIC "-//W3C//DTD SVG 1.1//EN" "http://www.w3.org/Graphics/SVG/1.1/DTD/svg11.dtd"><svg t="1536149268966" class="icon" style="" viewBox="0 0 1024 1024" version="1.1" xmlns="http://www.w3.org/2000/svg" p-id="2055" xmlns:xlink="http://www.w3.org/1999/xlink" width="64" height="64"><defs><style type="text/css"></style></defs><path d="M512 961.610044c142.472875 0 269.375124-66.344011 351.752296-169.737846-17.993816-19.282159-47.263443-25.451672-72.78163-37.397748-36.941354-17.251919-77.970816-37.33942-114.917286-54.097082-10.464329-3.183506-21.056572-6.367011-31.585369-9.546424-12.57234-9.553587-24.821315-41.444924-31.583323-57.294914-6.701632-1.054005-13.401218-2.115174-20.100804-3.176342 1.01819-24.540929 14.738679-25.816992 20.100804-44.551682 4.720511-16.557094 0.508583-37.987173 8.039093-53.332672 5.16872-10.610662 16.972557-10.677177 22.843264-19.729344 5.360078-8.283664 8.867972-22.700001 10.525728-32.8205 3.064802-18.521842 5.745864-43.776016-2.230808-62.154595-4.5312-10.54824-7.402597-11.532661-8.677637-24.335245-1.531889-15.484669 4.145413-66.051345 4.338818-77.020164 0.573051-28.356838 0-30.691-6.192026-58.272171 0 0-7.528464-25.034163-19.333324-32.604582l-23.479761-4.456498-14.552437-14.917758c-58.508555-39.882336-121.234155-11.95017-154.858974 3.183506-48.427966 17.398252-79.06166 69.944002-57.685817 182.254927 3.6399 19.165502-9.44307 27.716248-8.611122 38.184671 1.850138 22.915919 2.297322 77.869508 21.759583 91.447758 1.849114 1.272993 15.69547 5.085832 15.567557 4.031826 1.914606 22.275329 3.831258 44.624337 5.743818 66.899666 4.909823 14.781658 16.588817 16.406668 19.971867 37.343513l-14.929014 4.024663c-6.765077 15.851013-19.082614 47.741327-31.650861 57.294914-10.528797 3.179412-21.056572 6.362918-31.584346 9.546424-36.882002 16.757662-77.909417 36.845163-114.852818 54.097082-25.512047 11.946077-54.776557 18.108426-72.799026 37.383422C242.611573 895.25887 369.519961 961.610044 512 961.610044z" p-id="2056" fill="#ffffff"></path></svg>