<?xml version="1.0" standalone="no"?><!DOCTYPE svg PUBLIC "-//W3C//DTD SVG 1.1//EN" "http://www.w3.org/Graphics/SVG/1.1/DTD/svg11.dtd"><svg t="1537319892492" class="icon" style="" viewBox="0 0 1024 1024" version="1.1" xmlns="http://www.w3.org/2000/svg" p-id="2546" xmlns:xlink="http://www.w3.org/1999/xlink" width="64" height="64"><defs><style type="text/css"></style></defs><path d="M933.875 512c0 232.875-189 421.875-421.875 421.875S90.125 744.875 90.125 512 279.125 90.125 512 90.125 933.875 279.125 933.875 512" fill="#F7931A" p-id="2547"></path><path d="M614.515625 635.1875c-3.375 11.8125-11.390625 21.515625-22.359375 27.421875-10.96875 5.90625-23.625 7.171875-35.4375 3.796875l-118.96875-35.4375 26.578125-89.015625 118.96875 35.4375c24.46875 7.59375 38.390625 33.328125 31.21875 57.796875m40.078125-181.828125c5.90625 10.96875 7.171875 23.625 3.796875 35.4375-7.171875 24.46875-33.328125 38.390625-57.796875 31.21875l-118.96875-35.4375 26.578125-89.015625 118.96875 35.4375c11.8125 3.375 21.515625 11.390625 27.421875 22.359375m53.15625-29.109375c-13.5-24.890625-36.28125-43.453125-63.28125-51.46875l-15.609375-4.640625 21.9375-73.828125-56.53125-16.875-21.9375 73.828125-48.09375-14.34375L545.75 263.09375l-13.5-4.21875-54.84375-16.453125-21.09375 71.296875-66.65625-19.40625-18.984375 63.28125 66.65625 19.828125L368.5625 607.765625 301.90625 587.9375l-18.984375 63.28125 66.65625 19.828125-17.71875 59.90625 13.5 4.21875 54.84375 16.453125 18.5625-62.859375 48.515625 14.34375-18.5625 62.4375 56.109375 16.875 18.5625-62.859375 16.03125 4.640625c10.125 2.953125 20.25 4.640625 30.796875 4.640625 17.296875 0 35.015625-4.21875 50.625-13.078125 24.890625-13.5 43.453125-36.28125 51.46875-63.28125 8.4375-28.6875 4.21875-58.21875-9.28125-82.6875 24.890625-13.078125 44.296875-35.4375 53.15625-64.125 8.015625-27.421875 5.0625-56.109375-8.4375-81.421875" fill="#FFFFFF" p-id="2548"></path></svg>