<?xml version="1.0" standalone="no"?><!DOCTYPE svg PUBLIC "-//W3C//DTD SVG 1.1//EN" "http://www.w3.org/Graphics/SVG/1.1/DTD/svg11.dtd"><svg t="1537319936953" class="icon" style="" viewBox="0 0 1024 1024" version="1.1" xmlns="http://www.w3.org/2000/svg" p-id="2795" xmlns:xlink="http://www.w3.org/1999/xlink" width="64" height="64"><defs><style type="text/css"></style></defs><path d="M512 512m-422.4 0a422.4 422.4 0 1 0 844.8 0 422.4 422.4 0 1 0-844.8 0Z" fill="#212121" p-id="2796"></path><path d="M505.710933 220.625067L379.234133 398.242133l33.536 104.904534 92.9408-160.9728zM406.4 514.1888L374.779733 415.274667l-58.299733 254.656zM313.053867 694.728533h151.057066l-53.832533-168.401066zM467.127467 704.162133H321.7536l180.343467 109.3888zM505.710933 704.162133h-28.680533l28.680533 89.719467zM505.710933 361.0368l-89.058133 154.2528 57.361067 179.438933h31.697066zM515.140267 704.162133v89.719467l28.680533-89.719467zM614.455467 514.1888l89.915733 155.741867-58.295467-254.656zM610.5728 526.327467l-53.832533 168.401066h151.057066zM641.617067 398.242133l-126.4768-177.617066v121.5488l92.9408 160.977066zM515.140267 694.728533h31.697066l57.361067-179.438933-89.058133-154.2528zM699.0976 704.162133h-145.373867l-34.9696 109.3888z" fill="#FFFFFF" p-id="2797"></path></svg>