<?xml version="1.0" standalone="no"?><!DOCTYPE svg PUBLIC "-//W3C//DTD SVG 1.1//EN" "http://www.w3.org/Graphics/SVG/1.1/DTD/svg11.dtd"><svg t="1536151712903" class="icon" style="" viewBox="0 0 1024 1024" version="1.1" xmlns="http://www.w3.org/2000/svg" p-id="4744" xmlns:xlink="http://www.w3.org/1999/xlink" width="64" height="64"><defs><style type="text/css"></style></defs><path d="M515.07 614.994c-178.665 0-345.256-96.19-434.896-251.012-13.098-22.615-5.32-51.471 17.191-64.57 22.615-13.097 51.574-5.32 64.57 17.192C234.69 442.264 369.968 520.34 514.968 520.34S795.245 442.263 868 316.502c13.098-22.615 41.955-30.392 64.57-17.294s30.289 41.955 17.293 64.57C860.326 518.804 693.735 614.993 515.07 614.993z m-244.974 47.07c-8.289 0-16.782-2.148-24.354-6.753-22.41-13.507-29.573-42.569-16.066-64.876l52.187-86.365c13.508-22.41 42.57-29.471 64.877-16.066 22.41 13.507 29.573 42.569 16.065 64.876l-52.187 86.365c-8.903 14.633-24.457 22.82-40.522 22.82z m487.39 0c-15.963 0-31.62-8.083-40.522-22.819l-52.188-86.365c-13.507-22.41-6.344-51.369 15.963-64.876 22.41-13.507 51.37-6.344 64.877 15.963l52.187 86.365c13.507 22.41 6.344 51.37-15.963 64.877-7.572 4.604-16.066 6.856-24.354 6.856z m-242.416 61.5c-26.094 0-47.276-21.182-47.276-47.276v-108.57c0-26.094 21.182-47.276 47.276-47.276 26.094 0 47.276 21.182 47.276 47.276v108.57c0 26.094-21.182 47.276-47.276 47.276z" fill="#707070" p-id="4745"></path></svg>