<?xml version="1.0" standalone="no"?><!DOCTYPE svg PUBLIC "-//W3C//DTD SVG 1.1//EN" "http://www.w3.org/Graphics/SVG/1.1/DTD/svg11.dtd"><svg t="1536046960565" class="icon" style="" viewBox="0 0 1024 1024" version="1.1" xmlns="http://www.w3.org/2000/svg" p-id="1676" xmlns:xlink="http://www.w3.org/1999/xlink" width="64" height="64"><defs><style type="text/css"></style></defs><path d="M869.54496 917.40672 357.52448 917.40672l-218.59328-0.41984c-0.63488-0.01536-1.26464-0.04096-1.8944-0.10752-25.9328-2.59584-49.92-14.67904-67.52256-34.01728-17.73568-19.48672-27.50464-44.73344-27.50464-71.08608L42.0096 262.02112c0-58.24512 47.39072-105.63584 105.63584-105.63584l721.89952 0c58.25024 0 105.63584 47.39072 105.63584 105.63584l0 235.38176c0 0.2816-0.01024 0.56832-0.02048 0.86016-0.0256 0.51712-2.05312 53.98528 16.15872 89.19552 4.9152 9.51808 1.19296 21.2224-8.32 26.14272s-21.22752 1.20832-26.14784-8.30464c-22.23104-42.9824-20.7104-101.91872-20.48-108.28288L936.3712 262.02112c0-36.84352-29.9776-66.82624-66.82624-66.82624L147.64544 195.19488c-36.84864 0-66.83136 29.98272-66.83136 66.82624l0 549.76c0 34.18624 25.38496 62.5664 59.20256 66.39616l217.54368 0.42496 511.98464 0c36.84864 0 66.83648-29.97248 66.83648-66.82112l-0.40448-97.78688c-0.10752-1.81248-1.65376-20.4032-20.4032-44.34944-0.0512-0.06656-0.09728-0.128-0.14848-0.19456l-22.67136-29.74208L770.4064 477.7984c-0.4352-0.56832-40.704-53.07392-90.05056-47.51872-40.00768 4.50048-79.27296 47.13984-113.54624 123.29984-18.38592 40.84736-36.16256 71.25504-54.35904 92.93312-18.3808 21.90336-37.23776 34.99008-57.66656 39.99744-45.32224 11.1104-84.59264-19.82464-126.17728-52.5824l-5.2736-4.1472c-48.59392-38.19008-71.76192-29.46048-165.25312 62.19776-7.6544 7.50592-19.93728 7.38304-27.43808-0.26624-7.5008-7.65952-7.37792-19.9424 0.27136-27.4432 48.69632-47.744 80.93184-75.904 111.7696-87.96672 34.816-13.62432 67.08736-6.53824 104.6272 22.95808l5.31456 4.18304c35.40992 27.88352 65.98656 51.97312 92.92288 45.3632 26.74176-6.5536 55.6288-43.9552 85.87776-111.17056 40.85248-90.7776 89.58976-139.88352 144.8704-145.96096 71.44448-7.84896 122.97216 59.90912 125.12768 62.80192l122.25024 161.76128 22.53824 29.57824c27.42784 35.09248 28.52864 64.3328 28.56448 67.5584 0 0.04096 0 0.09216 0 0.128l0.40448 98.16576C975.1808 870.016 927.7952 917.40672 869.54496 917.40672L869.54496 917.40672z" p-id="1677" fill="#cdcdcd"></path><path d="M305.05984 452.34176c-44.17536 0-80.11264-35.93728-80.11264-80.11264 0-44.17536 35.9424-80.11264 80.11264-80.11264S385.17248 328.04864 385.17248 372.224C385.17248 416.40448 349.23008 452.34176 305.05984 452.34176L305.05984 452.34176zM305.05984 330.91584c-22.77888 0-41.31328 18.52928-41.31328 41.30816 0 22.77376 18.5344 41.30816 41.31328 41.30816 22.77888 0 41.30816-18.5344 41.30816-41.30816C346.368 349.44512 327.8336 330.91584 305.05984 330.91584L305.05984 330.91584z" p-id="1678" fill="#cdcdcd"></path></svg>