<?xml version="1.0" standalone="no"?><!DOCTYPE svg PUBLIC "-//W3C//DTD SVG 1.1//EN" "http://www.w3.org/Graphics/SVG/1.1/DTD/svg11.dtd"><svg t="1536240525167" class="icon" style="" viewBox="0 0 1024 1024" version="1.1" xmlns="http://www.w3.org/2000/svg" p-id="4803" xmlns:xlink="http://www.w3.org/1999/xlink" width="64" height="64"><defs><style type="text/css"></style></defs><path d="M671.744 417.28l-146.944 176.64-147.456-177.152H301.568v28.672a25.6 25.6 0 0 1 24.064 10.24v3.072c32.256 41.472 159.232 185.856 195.072 230.4 35.84-45.056 162.304-189.44 195.072-231.424a25.6 25.6 0 0 1 24.064-10.24V414.72h-71.68s5.632 0 3.584 2.56z m216.064-44.032a86.528 86.528 0 0 1 0 111.616l-176.128 191.488-130.048 140.288a71.168 71.168 0 0 1-56.32 28.672 71.68 71.68 0 0 1-56.32-28.672L343.04 680.96 162.304 485.376a83.968 83.968 0 0 1 0-110.08L245.76 282.624l69.12-75.264a73.216 73.216 0 0 1 57.344-28.16h307.2a75.776 75.776 0 0 1 55.296 27.648c28.672 28.672 90.624 97.28 128 137.728z" fill="#ffcb17" p-id="4804"></path></svg>