<?xml version="1.0" standalone="no"?><!DOCTYPE svg PUBLIC "-//W3C//DTD SVG 1.1//EN" "http://www.w3.org/Graphics/SVG/1.1/DTD/svg11.dtd"><svg t="1537875061660" class="icon" style="" viewBox="0 0 1024 1024" version="1.1" xmlns="http://www.w3.org/2000/svg" p-id="1114" xmlns:xlink="http://www.w3.org/1999/xlink" width="200" height="200"><defs><style type="text/css"></style></defs><path d="M513 885.526c-10.059 0-19.546-4.042-26.715-11.38L97.826 476.486c-9.15-9.367-9.15-24.609 0-33.978l199.815-204.542c18.82-19.268 43.799-29.879 70.335-29.879h290.047c26.536 0 51.516 10.611 70.338 29.879L928.175 442.51c9.149 9.367 9.149 24.609-0.001 33.977l-388.459 397.66c-7.168 7.337-16.656 11.379-26.715 11.379z" fill="#FFFFFF" p-id="1115"></path><path d="M658.024 233.088c19.747 0 38.375 7.937 52.454 22.349l199.343 204.061-387.989 397.178c-3.109 3.182-6.519 3.85-8.832 3.85-2.313 0-5.724-0.668-8.832-3.849L116.179 459.498l199.347-204.063c14.076-14.411 32.703-22.347 52.45-22.347h290.048m0-50H367.976c-33.089 0-64.822 13.456-88.219 37.409L79.942 425.04c-18.59 19.031-18.59 49.884 0 68.916l388.46 397.66c12.316 12.607 28.457 18.91 44.598 18.91s32.283-6.303 44.598-18.91l388.46-397.66c18.59-19.031 18.59-49.884 0-68.916L746.244 220.497c-23.398-23.952-55.132-37.409-88.22-37.409z" fill="#1A1A1A" p-id="1116"></path><path d="M582.7 330.951H443.3c-15.901 0-31.152 6.427-42.398 17.865l-96.029 97.695c-8.934 9.088-8.934 23.824 0 32.911L491.568 669.35a29.946 29.946 0 0 0 42.865 0l186.695-189.928c8.934-9.088 8.934-23.824 0-32.911l-96.029-97.695c-11.246-11.438-26.498-17.865-42.399-17.865z" fill="#FFCD36" p-id="1117"></path></svg>